<svg xmlns="http://www.w3.org/2000/svg" viewBox="0 0 92.97 121.69"
      height="21" width="16">
      <path fill="#828282" d="M46.32,121.67c-11.11,0-22.21,.03-33.32,0-8.21-.03-12.88-4.45-12.92-12.63-.11-18.46-.1-36.93,0-55.39,.05-8.48,4.86-13.15,13.43-12.93,3.45,.09,4.43-.88,4.35-4.33-.16-6.31-.65-12.64,2.09-18.76C25.21,5.86,37.77-1.52,50.21,.27c13.18,1.89,23.36,12.18,25.02,25.14,.53,4.11,.42,8.22,.32,12.32-.06,2.33,.73,3.2,3,2.91,.74-.09,1.5-.03,2.24-.01,7.08,.15,12.09,4.94,12.12,11.98,.09,19.09,.08,38.17,0,57.26-.03,7.04-4.7,11.69-11.77,11.76-11.6,.11-23.21,.03-34.82,.03Zm-.2-81.04c2.12,0,4.25,.11,6.37-.02,3.69-.23,8.72,1.68,10.69-.83,1.85-2.34,.69-7.15,.63-10.88-.16-9.85-7.88-17.42-17.42-17.23-9.79,.2-17.09,7.67-17.12,17.53,0,2.37,.19,4.76-.05,7.11-.33,3.26,.55,4.69,4.18,4.39,4.22-.35,8.48-.08,12.73-.08Zm.3,52.22c6.34,.05,11.85-5.35,11.81-11.57-.04-6.32-5.47-11.69-11.76-11.64-6.3,.05-11.69,5.5-11.66,11.78,.03,5.98,5.53,11.38,11.62,11.43Z" />
    </svg>