 <svg xmlns="http://www.w3.org/2000/svg" viewBox="0 0 117.01 93.63"
      height="16" width="20" >
      <path fill="#828282" d="M58.41,93.63c-14.86,0-29.72,.01-44.57,0-9,0-13.77-4.57-13.79-13.46-.06-22.22-.06-44.44,0-66.66C.07,4.67,4.94,0,13.86,0c29.84,0,59.68,0,89.52,0,9.09,0,13.61,4.47,13.61,13.52,.02,22.22,.01,44.44,0,66.66,0,9.04-4.47,13.43-13.64,13.44-14.98,.01-29.97,0-44.95,0Zm.84-42.86c1.85-.33,4.11-.85,6.17-2.17,4.5-2.9,9.06-5.7,13.59-8.55,7.81-4.9,15.61-9.8,23.43-14.69,2.24-1.4,3.41-3.31,2.71-5.96-.62-2.32-2.37-3.44-4.68-3.63-1.75-.15-3.04,1.01-4.4,1.85-9.22,5.7-18.89,10.81-27.45,17.37-7.36,5.64-12.9,5.37-20.16-.05-8.85-6.61-18.65-11.97-28.09-17.79-3.5-2.16-6.54-1.53-7.99,1.38-1.34,2.69-.27,5.21,3.21,7.39,11.83,7.4,23.67,14.77,35.5,22.17,2.36,1.47,4.81,2.62,8.16,2.69Z" />
    </svg>